# xmcd
#
# Track frame offsets:
#	150
#	20034
#	41039
#	64200
#	86348
#	104299
#	129571
#	150755
#	181081
#	200951
#	224130
#	251523
#	282859
#	312725
#	331505
#
# Disc length: 4665 seconds
#
# Revision: 0
# Processed by: cddbd v1.5.1PL0 Copyright (c) Steve Scherf et al.
# Submitted via: dBpowerAMP V4.0
#
DISCID=d912370f
DTITLE=TU BADL E 2 - SABER K
DYEAR=2004
DGENRE=Cabaret
TTITLE0=dfgdf
TTITLE1=ger
TTITLE2=11 tu badli
TTITLE3=fdyt
TTITLE4=yuhyt
TTITLE5=uty
TTITLE6=jd
TTITLE7=jdgyjyt
TTITLE8=hgfx
TTITLE9=hfg
TTITLE10=fhxdr
TTITLE11=hft
TTITLE12=fh
TTITLE13=hyrt
TTITLE14=xgy t
EXTD=
EXTT0=
EXTT1=
EXTT2=
EXTT3=
EXTT4=
EXTT5=
EXTT6=
EXTT7=
EXTT8=
EXTT9=
EXTT10=
EXTT11=
EXTT12=
EXTT13=
EXTT14=
PLAYORDER=
